<svg id="Capa_1" enable-background="new 0 0 512 512" height="512" viewBox="0 0 512 512" width="512" xmlns="http://www.w3.org/2000/svg"><g><g><path d="m197.975 425.97h-99.916c-5.523 0-10-4.478-10-10s4.477-10 10-10h99.916c5.523 0 10 4.478 10 10s-4.477 10-10 10z"/><path d="m260.154 135.366c-1.87-2.681-4.933-4.278-8.201-4.278h-86.82c-14.062 0-26.933 5.198-36.792 13.772-2.027-3.64-4.445-6.871-7.245-9.671-19.703-19.704-55.051-14.235-56.545-13.992-4.25.689-7.582 4.021-8.271 8.271-.242 1.495-5.711 36.843 13.992 56.545.412.411.833.814 1.263 1.209-.43.396-.851.799-1.263 1.21-19.703 19.703-14.234 55.05-13.992 56.545.689 4.25 4.021 7.581 8.271 8.271.546.089 5.619.876 12.798.876 12.454 0 31.248-2.37 43.747-14.868 2.799-2.799 5.218-6.03 7.245-9.671 9.86 8.575 22.731 13.773 36.793 13.773h52.886c4.192 0 7.938-2.614 9.385-6.548l33.934-92.269c1.128-3.069.685-6.494-1.185-9.175zm-184.758 98.766c-.241-9.659 1.241-23.781 9.018-31.558 2.481-2.481 5.771-4.491 9.778-5.972 3.926-1.45 6.534-5.193 6.534-9.379s-2.606-7.929-6.532-9.381c-4.008-1.481-7.299-3.491-9.781-5.973-7.779-7.779-9.259-21.907-9.019-31.557 9.65-.249 23.78 1.24 31.558 9.019 3.344 3.344 5.802 8.103 7.314 14.157-3.379 7.212-5.267 15.256-5.267 23.733s1.889 16.52 5.267 23.732c-1.513 6.054-3.972 10.816-7.314 14.157-7.779 7.783-21.904 9.269-31.556 9.022zm135.646-10.776h-45.909c-19.924 0-36.134-16.21-36.134-36.134 0-19.925 16.209-36.135 36.134-36.135h72.488z"/><path d="m396.866 135.366c-1.87-2.681-4.933-4.278-8.201-4.278h-86.932c-4.192 0-7.938 2.614-9.385 6.548l-33.934 92.269c-1.128 3.068-.686 6.493 1.184 9.174s4.933 4.278 8.201 4.278h86.932c4.192 0 7.938-2.614 9.385-6.548l33.935-92.269c1.127-3.068.685-6.493-1.185-9.174zm-88.157 15.722h22.156l-26.579 72.269h-22.156zm39.044 72.268h-22.157l26.579-72.269h22.157z"/><path d="m470.851 146.073h-33.958v-75.73c0-21.872-17.794-39.667-39.667-39.667h-357.559c-21.873 0-39.667 17.795-39.667 39.667v233.759c0 21.872 17.794 39.667 39.667 39.667h143.161c5.523 0 10-4.478 10-10s-4.477-10-10-10h-143.161c-10.844 0-19.667-8.822-19.667-19.667v-233.759c0-10.845 8.822-19.667 19.667-19.667h357.561c10.844 0 19.667 8.822 19.667 19.667v96.594c0 5.522 4.477 10 10 10s10-4.478 10-10v-.863h33.958c11.662 0 21.149 9.487 21.149 21.149 0 11.661-9.487 21.148-21.149 21.148h-43.958c-5.523 0-10 4.478-10 10v85.73c0 10.845-8.822 19.667-19.667 19.667h-123.988c-5.523 0-10 4.478-10 10s4.477 10 10 10h123.987c21.872 0 39.667-17.795 39.667-39.667v-75.73h33.958c22.689 0 41.149-18.459 41.149-41.148s-18.46-41.15-41.15-41.15z"/><g><path d="m228.22 343.77c-4.178 0-8.007-2.711-9.415-6.635-1.412-3.937-.155-8.438 3.071-11.093 3.27-2.692 8.023-3.002 11.621-.767 3.56 2.212 5.403 6.588 4.478 10.678-1.02 4.502-5.125 7.817-9.755 7.817z"/></g><path d="m433.472 367.004h-423.472c-5.523 0-10 4.478-10 10 0 57.522 46.798 104.32 104.32 104.32h129.432c5.523 0 10-4.478 10-10v-21.631h16.984v5.242c0 5.522 4.477 10 10 10h162.736c27 0 48.966-21.966 48.966-48.966s-21.966-48.965-48.966-48.965zm-199.72 62.689c-5.523 0-10 4.478-10 10v21.631h-119.432c-43.112 0-78.771-32.521-83.731-74.32h240.146v42.689zm46.984-42.689h37.18v57.932h-37.18zm152.736 57.932h-95.557v-57.932h95.557c15.972 0 28.966 12.994 28.966 28.966s-12.994 28.966-28.966 28.966z"/></g></g></svg>