<svg id="Capa_1" enable-background="new 0 0 512 512" height="512" viewBox="0 0 512 512" width="512" xmlns="http://www.w3.org/2000/svg"><g><path d="m420.388 393.057v17.86c0 4.143 3.357 7.5 7.5 7.5s7.5-3.357 7.5-7.5v-17.86c0-4.143-3.357-7.5-7.5-7.5s-7.5 3.357-7.5 7.5z"/><path d="m504.5 330.211h-106.27c-6.31 0-11.442 5.134-11.442 11.443v7.151h-31.97c-8.205 0-15.105 5.61-17.118 13.189l-35.12-9.841c-2.643-.74-4.333-3.347-3.933-6.061l7.15-48.484c.587-3.976.122-7.979-1.273-11.649h60.207c15.718 0 28.505-12.787 28.505-28.505v-21.926c0-4.143-3.357-7.5-7.5-7.5h-21.204v-11.145c0-80.988-64.186-147.257-144.358-150.635v-4.458c0-12.988-10.567-23.556-23.556-23.556s-23.556 10.567-23.556 23.556v4.458c-20.547.849-40.312 5.765-58.84 14.674-3.733 1.795-5.304 6.276-3.509 10.009s6.275 5.302 10.009 3.509c18.407-8.851 38.178-13.339 58.763-13.339h34.266c74.87 0 135.781 60.911 135.781 135.781v11.145h-305.828v-11.145c0-42.367 19.257-81.548 52.833-107.497 3.277-2.533 3.881-7.243 1.349-10.521-2.533-3.277-7.243-3.88-10.521-1.349-37.28 28.812-58.661 72.318-58.661 119.366v11.145h-21.204c-4.143 0-7.5 3.357-7.5 7.5v21.926c0 15.718 12.787 28.505 28.505 28.505h53.001c-2.324 7.462-.443 15.369 5.154 21.059l36.723 37.334c23.712 24.106 50.979 44.176 81.046 59.649s62.245 25.999 95.645 31.285l37.43 5.923c1.735 7.969 8.835 13.958 17.316 13.958h31.97v7.152c0 6.31 5.133 11.443 11.442 11.443h36.177c4.143 0 7.5-3.357 7.5-7.5s-3.357-7.5-7.5-7.5h-32.619v-113.549h95.21v113.553h-32.606c-4.143 0-7.5 3.357-7.5 7.5s3.357 7.5 7.5 7.5h40.106c4.143 0 7.5-3.357 7.5-7.5v-128.553c0-4.143-3.357-7.5-7.5-7.5zm-307.882-276.975c4.718 0 8.556 3.838 8.556 8.556v4.312h-17.111v-4.312c-.001-4.718 3.837-8.556 8.555-8.556zm-181.618 204.219v-14.426h363.236v14.426c0 7.446-6.059 13.505-13.505 13.505h-133.42c-4.143 0-7.5 3.357-7.5 7.5s3.357 7.5 7.5 7.5h29.166l-25.819 40.583c-3.648 5.735-11.185 7.683-17.153 4.435l-82.767-45.018h66.585c4.143 0 7.5-3.357 7.5-7.5s-3.357-7.5-7.5-7.5h-172.818c-7.446 0-13.505-6.059-13.505-13.505zm196.292 133.209c-28.646-14.742-54.625-33.863-77.217-56.831l-36.723-37.334c-4.954-5.037 1.092-13.206 7.376-9.786l105.61 57.442c12.868 6.998 29.112 2.8 36.977-9.562l28.508-44.809c4.762-7.484 16.427-3.129 15.135 5.635l-7.15 48.485c-1.499 10.163 4.831 19.919 14.725 22.692l38.557 10.804v48.557l-34.673-5.487c-31.821-5.034-62.479-15.064-91.125-29.806zm143.526 49.504c-1.505 0-2.729-1.225-2.729-2.729v-70.903c0-1.505 1.225-2.729 2.729-2.729h31.97v76.362h-31.97z"/></g></svg>