<?xml version="1.0" encoding="iso-8859-1"?>
<!-- Generator: Adobe Illustrator 19.0.0, SVG Export Plug-In . SVG Version: 6.00 Build 0)  -->
<svg version="1.1" id="Capa_1" xmlns="http://www.w3.org/2000/svg" xmlns:xlink="http://www.w3.org/1999/xlink" x="0px" y="0px"
	 viewBox="0 0 511.999 511.999" style="enable-background:new 0 0 511.999 511.999;" xml:space="preserve">
<g>
	<g>
		<path d="M483.38,237.146h-61.88c-4.143,0-7.5,3.357-7.5,7.5c0,4.143,3.357,7.5,7.5,7.5h61.88c7.51,0,13.62,6.105,13.62,13.61
			c0,7.51-6.11,13.619-13.62,13.619H364.838c-0.301-7.688-6.649-13.85-14.409-13.85h-68.693c0.131-1.538,0.203-3.085,0.203-4.64
			v-8.74h110.561c4.143,0,7.5-3.357,7.5-7.5c0-4.143-3.357-7.5-7.5-7.5H280.129c-2.199-3.642-6.184-6.09-10.74-6.09H62.827
			c-4.142,0-7.5,3.357-7.5,7.5c0,4.143,3.358,7.5,7.5,7.5h204.111v14.83c0,3.477-0.45,6.9-1.346,10.199
			c-4.573,17.075-20.135,29-37.845,29h-35.59c-4.142,0-7.5,3.357-7.5,7.5c0,4.143,3.358,7.5,7.5,7.5h35.59
			c22.521,0,42.523-13.961,50.508-34.56h71.603c0.306,7.688,6.656,13.85,14.419,13.85h119.101c15.781,0,28.62-12.839,28.62-28.619
			C512,249.981,499.161,237.146,483.38,237.146z"/>
	</g>
</g>
<g>
	<g>
		<path d="M163.167,300.083H54.198C32.584,300.083,15,282.499,15,260.885v-14.833h18.833c4.142,0,7.5-3.357,7.5-7.5
			s-3.358-7.5-7.5-7.5H12.55c-6.92,0-12.55,5.63-12.55,12.55v17.283c0,29.885,24.313,54.198,54.198,54.198h108.969
			c4.142,0,7.5-3.357,7.5-7.5C170.667,303.44,167.309,300.083,163.167,300.083z"/>
	</g>
</g>
<g>
	<g>
		<path d="M477.403,255.456h-10.152c-4.143,0-7.5,3.357-7.5,7.5c0,4.143,3.357,7.5,7.5,7.5h10.152c4.143,0,7.5-3.357,7.5-7.5
			C484.903,258.813,481.546,255.456,477.403,255.456z"/>
	</g>
</g>
<g>
	<g>
		<path d="M156.186,162.66c5.901-5.901,9.151-13.746,9.151-22.092c0-8.346-3.25-16.191-9.151-22.093l-9.508-9.508
			c-3.068-3.067-4.757-7.146-4.757-11.484s1.689-8.418,4.757-11.486c2.929-2.929,2.929-7.678,0-10.606
			c-2.929-2.928-7.678-2.929-10.606,0.001c-5.901,5.9-9.151,13.746-9.151,22.092c0,8.346,3.25,16.19,9.151,22.092l9.508,9.507
			c3.068,3.068,4.757,7.147,4.757,11.486c0,4.339-1.689,8.417-4.757,11.484l-9.508,9.507c-5.901,5.9-9.151,13.746-9.151,22.092
			c0,8.345,3.25,16.19,9.151,22.092c1.464,1.464,3.384,2.196,5.303,2.196s3.839-0.732,5.303-2.197c2.929-2.929,2.929-7.678,0-10.606
			c-3.068-3.067-4.757-7.146-4.757-11.484s1.689-8.418,4.757-11.485L156.186,162.66z"/>
	</g>
</g>
<g>
	<g>
		<path d="M200.035,162.66c5.901-5.901,9.151-13.747,9.151-22.092c0-8.346-3.25-16.191-9.151-22.092
			c-2.928-2.93-7.677-2.929-10.606-0.001c-2.929,2.929-2.929,7.678,0,10.606c3.068,3.068,4.757,7.147,4.757,11.486
			s-1.689,8.417-4.757,11.484l-9.508,9.509c-5.901,5.9-9.151,13.746-9.151,22.092c0,8.345,3.25,16.19,9.151,22.092
			c1.464,1.463,3.384,2.196,5.303,2.196c1.919,0,3.839-0.732,5.303-2.197c2.929-2.929,2.929-7.678,0-10.606
			c-3.068-3.067-4.757-7.146-4.757-11.484s1.689-8.418,4.757-11.485L200.035,162.66z"/>
	</g>
</g>
<g>
	<g>
		<path d="M113.384,162.66c5.901-5.901,9.151-13.747,9.151-22.092c0-8.346-3.25-16.191-9.151-22.092
			c-2.929-2.93-7.678-2.929-10.606-0.001c-2.929,2.929-2.929,7.678,0,10.606c3.068,3.068,4.757,7.147,4.757,11.486
			s-1.689,8.417-4.757,11.484l-9.508,9.509c-5.901,5.9-9.151,13.746-9.151,22.092c0,8.345,3.25,16.19,9.151,22.092
			c1.464,1.463,3.384,2.196,5.303,2.196s3.839-0.732,5.303-2.197c2.929-2.929,2.929-7.678,0-10.606
			c-3.068-3.067-4.757-7.146-4.757-11.484s1.689-8.418,4.757-11.485L113.384,162.66z"/>
	</g>
</g>
<g>
	<g>
		<path d="M250.472,408.808H236.37c2.842-5.793,4.255-13.276,4.255-22.5c0-29.111-20.973-53.85-21.866-54.889
			c-1.856-2.16-4.778-3.086-7.537-2.38c-2.76,0.702-4.885,2.907-5.484,5.691c-2.542,11.816-9.004,18.764-15.255,25.481
			c-6.985,7.507-14.208,15.271-14.208,28.096c0,8.545,1.779,15.285,4.707,20.5h-12.091c2.842-5.793,4.255-13.276,4.255-22.5
			c0-29.111-20.972-53.85-21.865-54.889c-1.857-2.16-4.777-3.086-7.537-2.38c-2.76,0.702-4.885,2.907-5.484,5.691
			c-2.542,11.816-9.004,18.764-15.255,25.481c-6.985,7.507-14.208,15.271-14.208,28.096c0,8.545,1.779,15.285,4.707,20.5h-12.091
			c2.842-5.793,4.255-13.276,4.255-22.5c0-29.111-20.972-53.85-21.865-54.889c-1.857-2.16-4.778-3.086-7.537-2.38
			c-2.76,0.702-4.885,2.907-5.484,5.691c-2.542,11.816-9.004,18.764-15.255,25.481c-6.985,7.507-14.208,15.271-14.208,28.096
			c0,8.545,1.779,15.285,4.707,20.5H31.471c-12.407,0-22.5,10.094-22.5,22.5c0,4.143,3.358,7.5,7.5,7.5c4.142,0,7.5-3.357,7.5-7.5
			c0-4.136,3.364-7.5,7.5-7.5h219.001c4.136,0,7.5,3.364,7.5,7.5c0,4.143,3.357,7.5,7.5,7.5c4.143,0,7.5-3.357,7.5-7.5
			C272.973,418.902,262.879,408.808,250.472,408.808z M73.494,408.808c-11.396,0-17.174-6.897-17.174-20.5
			c0-6.605,3.682-10.884,10.189-17.878c4.466-4.8,9.636-10.356,13.658-17.958c4.972,8.49,10.501,20.852,10.501,33.836
			C90.669,408.808,81.145,408.808,73.494,408.808z M140.972,408.808c-11.395,0-17.174-6.897-17.174-20.5
			c0-6.605,3.682-10.884,10.189-17.878c4.466-4.8,9.636-10.356,13.658-17.958c4.972,8.49,10.501,20.852,10.501,33.836
			C158.146,408.808,148.624,408.808,140.972,408.808z M208.449,408.808c-11.395,0-17.174-6.897-17.174-20.5
			c0-6.605,3.682-10.884,10.189-17.878c4.466-4.8,9.636-10.357,13.658-17.959c4.972,8.491,10.501,20.853,10.501,33.837
			C225.623,408.808,216.1,408.808,208.449,408.808z"/>
	</g>
</g>
<g>
</g>
<g>
</g>
<g>
</g>
<g>
</g>
<g>
</g>
<g>
</g>
<g>
</g>
<g>
</g>
<g>
</g>
<g>
</g>
<g>
</g>
<g>
</g>
<g>
</g>
<g>
</g>
<g>
</g>
</svg>
