<svg id="Capa_1" enable-background="new 0 0 512 512" height="512" viewBox="0 0 512 512" width="512" xmlns="http://www.w3.org/2000/svg"><g><path d="m322.938 421.104h-40.445c-5.523 0-10 4.478-10 10s4.477 10 10 10h40.445c5.523 0 10-4.478 10-10s-4.477-10-10-10z"/><path d="m248.641 427.279c-1.642-3.939-5.705-6.462-9.971-6.144-4.168.311-7.775 3.277-8.895 7.3-2.408 8.652 7.468 15.896 15.003 11.101 4.04-2.569 5.703-7.838 3.863-12.257z"/><path d="m468.441 153.775 4.8-4.8c18.332-18.333 18.333-48.928 0-67.261-18.333-18.334-48.928-18.334-67.261 0l-13.16 13.16v-36.851c0-20.664-17.29-37.934-37.933-37.933h-38.277v-10.09c0-5.522-4.477-10-10-10s-10 4.478-10 10v10.091h-45.601v-10.091c0-5.522-4.477-10-10-10s-10 4.478-10 10v10.091h-45.601v-10.091c0-5.522-4.477-10-10-10s-10 4.478-10 10v10.091h-45.601v-10.091c0-5.522-4.477-10-10-10s-10 4.478-10 10v10.091h-39.8c-20.916 0-37.933 17.017-37.933 37.933v59.904 356.14c0 20.916 17.017 37.933 37.933 37.933h294.88c20.916 0 37.933-17.017 37.933-37.933v-244.67l61.479-61.479 7.232 7.232c11.205 11.204 11.205 29.436 0 40.64l-54.027 54.028c-3.905 3.905-3.905 10.237 0 14.143 3.853 3.852 10.289 3.852 14.142 0l54.027-54.028c19.002-19.003 19.002-49.922 0-68.925zm-156.319 128.035-38.977-38.976 128.035-128.035 38.976 38.977zm-74.6 64.374c-23.974 15.292-47.023 31.012-72.546 43.797 24.407-48.727 56.266-93.711 94.092-132.941l38.848 38.847c-18.973 18.294-39.143 35.07-60.394 50.297zm202.088-258.401c7.362 0 14.283 2.867 19.488 8.073 10.622 10.621 10.62 28.355 0 38.977l-4.8 4.8-38.976-38.977 4.8-4.8c5.206-5.206 12.127-8.073 19.488-8.073zm-397.536-29.76c0-9.888 8.044-17.933 17.933-17.933h39.801v11.415c0 5.522 4.477 10 10 10s10-4.478 10-10v-11.414h45.601v11.415c0 5.522 4.477 10 10 10s10-4.478 10-10v-11.415h45.601v11.415c0 5.522 4.477 10 10 10s10-4.478 10-10v-11.415h45.601v11.415c0 5.522 4.477 10 10 10s10-4.478 10-10v-11.415h38.277c9.757 0 17.933 8.176 17.933 17.933v49.904h-330.747zm330.746 416.044c0 9.888-8.044 17.933-17.933 17.933h-294.88c-9.888 0-17.933-8.045-17.933-17.933v-346.14h317.692l-63.704 63.704h-202.618c-5.523 0-10 4.478-10 10s4.477 10 10 10h182.618l-24.131 24.131c-.002.002-.003.004-.005.006-10.428 10.428-20.402 21.22-29.921 32.354h-128.561c-5.523 0-10 4.478-10 10s4.477 10 10 10h112.244c-14.028 18.028-26.916 36.878-38.63 56.491h-73.614c-5.523 0-10 4.478-10 10s4.477 10 10 10h62.209c-7.146 13.166-13.782 26.652-19.897 40.439l-16.11 16.052h-26.202c-5.523 0-10 4.478-10 10s4.477 10 10 10h101.742c5.523 0 10-4.478 10-10s-4.477-10-10-10h-47.203l1.902-1.896c34.009-15.084 66.175-33.341 96.26-54.595h76.792c5.523 0 10-4.478 10-10s-4.477-10-10-10h-50.207c16.181-12.944 31.687-26.813 46.464-41.59l53.626-53.626z"/></g></svg>